<?xml version="1.0" encoding="UTF-8"?><svg id="a" xmlns="http://www.w3.org/2000/svg" viewBox="0 0 1133.86 1133.86"><defs><style>.b{fill:#fff;}</style></defs><path class="b" d="M332.86,956.56c0-6.8-.04-13.6.02-20.41.03-2.97.27-5.94.43-8.91.13-2.33.4-4.67.41-7,.05-9.15,1.18-18.24,1.76-27.35.37-5.93,1.24-11.83,1.91-17.74.46-4.01.96-8.01,1.44-12.02,3.26-27.44,8.25-54.58,13.94-81.6,5.91-28.06,12.82-55.88,20.11-83.61,7.18-27.31,14.55-54.58,21.72-81.9,6.41-24.44,12.51-48.96,17.68-73.71.22-1.04.47-2.07.7-3.11.52-2.39.08-4.55-1.06-6.75-3.93-7.55-7.16-15.41-9.7-23.54-3.48-11.18-5.83-22.58-7.24-34.22-1.72-14.21-1.71-28.44-.83-42.65.81-12.94,2.99-25.73,6.13-38.33,4.14-16.55,9.9-32.49,17.87-47.6,6.38-12.09,14.01-23.3,23.33-33.33,8.9-9.58,19.06-17.54,30.73-23.52,9.17-4.69,18.9-7.63,29.05-9.11,3.35-.49,6.78-.44,10.18-.57,14.25-.51,27.86,2.4,41.05,7.63,6.94,2.75,13.57,6.06,19.74,10.28,14.87,10.14,24.43,23.99,28.94,41.36,1.66,6.39,2.6,12.88,2.88,19.5.54,12.79-.28,25.47-2.32,38.1-3.15,19.55-8.19,38.63-13.93,57.54-5.8,19.1-11.94,38.1-17.88,57.15-4.61,14.8-9,29.67-12.67,44.74-2.21,9.09-4.05,18.25-5.48,27.48-1.51,9.69-2,19.45-1.51,29.24.37,7.46,1.73,14.78,4.27,21.81,4.34,12.01,11.94,21.42,22.77,28.23,7.46,4.69,15.57,7.77,24.05,9.93,12.22,3.11,24.65,4.59,37.26,3.87,13.91-.79,27.28-3.99,40.04-9.65,14.55-6.44,27.33-15.47,38.86-26.34,11.83-11.14,21.84-23.78,30.63-37.41,11.11-17.2,20-35.52,27.29-54.64,7.89-20.69,13.83-41.92,18.05-63.66,1.78-9.18,3.23-18.41,4.51-27.66.84-6.1,1.11-12.27,1.76-18.39,1.69-15.9,1.32-31.84,1.07-47.78-.14-8.93-1.17-17.8-2.13-26.67-.74-6.77-1.75-13.48-2.96-20.17-4.36-23.96-11.39-47.03-22.89-68.62-7.76-14.57-17.54-27.57-29.5-38.97-29.26-27.9-63.43-46.81-102.72-56.36-8.25-2.01-16.6-3.53-25.06-4.54-11.62-1.39-23.26-2.3-34.97-2.08-3.61.07-7.21.36-10.82.57-1.48.09-2.96.26-4.45.33-9.57.43-19,1.94-28.42,3.62-30.59,5.48-59.42,15.92-86.71,30.71-34.05,18.45-63.56,42.45-87.98,72.55-21.82,26.9-37.88,56.85-47.31,90.26-3.47,12.28-5.96,24.75-7.37,37.46-1.34,12.07-1.66,24.14-1.34,36.27.27,10.44,1.35,20.77,2.98,31.06,1.27,8.01,3.78,15.67,7.08,23.08,2.51,5.64,5.41,11.07,8.54,16.38,3.77,6.41,7.65,12.76,11.43,19.16,4,6.78,7.56,13.77,10.44,21.11,3.22,8.19,4.84,16.72,5.46,25.45.22,3.16-.04,6.37-.3,9.54-1.15,14.17-5.61,27.4-11.6,40.18-2.89,6.16-6.13,12.13-9.55,18.02-1.02,1.75-1.83,2.12-3.64,1.75-17.13-3.47-33.76-8.52-49.62-15.94-37.01-17.32-63.52-44.86-80.03-82.15-6.3-14.24-10.77-29.05-14.03-44.26-2.06-9.57-3.59-19.22-4.65-28.92-.76-6.96-1.5-13.94-1.73-20.96-.36-11.05-.48-22.09-.05-33.15.36-9.14,1.3-18.22,2.3-27.3.97-8.87,2.39-17.67,3.97-26.45,3.9-21.59,9.68-42.65,17.32-63.2,20.04-53.91,50.88-100.71,92.84-140.09,29.23-27.43,62.19-49.34,98.56-66.17,26.72-12.36,54.53-21.45,83.27-27.66,11-2.38,22.09-4.3,33.28-5.66,8.44-1.03,16.89-1.84,25.35-2.64,13.14-1.24,26.32-1.31,39.48-1.87,5.51-.24,11.05.17,16.57.34,5.1.16,10.2.34,15.29.6,3.82.2,7.63.54,11.44.82,1.06.08,2.12.23,3.18.28,7.65.4,15.22,1.44,22.81,2.42,8.22,1.07,16.38,2.41,24.53,3.89,25.78,4.68,50.91,11.65,75.4,20.92,26.73,10.11,52.1,22.91,75.87,38.82,27.76,18.59,52.28,40.72,73.01,66.97,24.83,31.44,42.34,66.56,52.93,105.18,3.09,11.28,5.54,22.7,7.31,34.25,1.29,8.39,2.21,16.84,3.15,25.29.97,8.67,1.25,17.38,1.89,26.07.58,7.83.38,15.72.46,23.58.04,4.04,0,8.08-.14,12.12-.14,4.46-.42,8.91-.66,13.37-.08,1.49-.23,2.97-.29,4.45-.35,9.35-1.39,18.63-2.49,27.92-1.05,8.86-2.4,17.67-3.89,26.47-3.17,18.66-7.55,37.03-13.01,55.15-9.36,31.03-21.81,60.75-37.98,88.88-17.82,31-39.48,58.94-66.1,82.92-27.66,24.92-58.91,43.82-94.25,55.75-12.9,4.35-26.07,7.6-39.49,9.94-15.97,2.78-32.03,3.96-48.21,3.8-5.53-.05-11.06-.07-16.58-.39-19.65-1.16-38.73-4.99-56.9-12.79-9.59-4.11-18.81-8.96-27.53-14.68-10.3-6.76-20.46-13.74-30.68-20.64-3-2.02-5.96-4.09-8.98-6.07-.69-.46-1.54-.68-2.32-.99-.38-.15-1.46.43-1.57.85-.53,2.05-1.14,4.09-1.54,6.16-3.91,20.44-8.28,40.79-13.03,61.05-7.66,32.69-16.56,65.03-28.13,96.58-7.25,19.77-15.54,39.08-25.37,57.72-10.04,19.03-21.55,37.11-35.15,53.83-13.89,17.07-29.59,32.24-47.36,45.25-3.43,2.51-6.88,5-10.34,7.46-.68.48-1.46.87-2.24,1.16-.26.09-.93-.23-1-.47-.45-1.63-.92-3.28-1.15-4.95-1.08-8-2.1-16-3.1-24.01-.71-5.69-1.34-11.39-2-17.09-.05-.42-.13-.84-.16-1.26-.55-8.06-1.1-16.11-1.63-24.17-.25-3.82-.45-7.64-.66-11.46-.13-2.33-.3-4.67-.34-7-.12-7.44-.19-14.88-.28-22.32.08,0,.16,0,.24,0Z"/></svg>