<?xml version="1.0" encoding="UTF-8"?><svg id="a" xmlns="http://www.w3.org/2000/svg" viewBox="0 0 1133.86 1133.86"><defs><style>.b{fill:#fff;}</style></defs><path class="b" d="M433.04,567.24c-30.11,0-58.11-.37-86.08.2-9.9.2-13.25-2.52-13.15-12.89.52-51.02.23-102.04.23-153.06v-11.41h98.34c.25-5.13.62-9.15.63-13.17.05-34.91-.97-69.85.27-104.72,1.73-48.72,12.49-94.96,42.85-134.88,28.7-37.74,67.09-60.16,113.12-67.28,29.25-4.53,59.32-4.41,89.05-4.99,39.1-.77,78.23-.19,118.33-.19v171.21c-21.57,0-42.94,0-64.31,0-13.43,0-26.85-.02-40.28,0-30.99.05-48.45,13.42-50.26,43.96-2.12,35.84-.5,71.9-.5,109.02h158.76c-.96,13.6-1.54,25.97-2.76,38.27-2.79,28.03-5.95,56.02-8.86,84.04-1.69,16.29-3.14,32.6-4.75,48.89-.78,7.87-6.77,6.98-12.11,6.98-38.36.02-76.72.01-115.09.01-4.53,0-9.07,0-15.01,0v500.76c-5.44.4-9.54.97-13.65.97-60.23.06-120.46-.2-180.68.26-10.82.08-14.38-2.67-14.36-14.07.37-157.28.25-314.57.25-471.85v-16.08Z"/></svg>