<?xml version="1.0" encoding="UTF-8"?><svg id="a" xmlns="http://www.w3.org/2000/svg" viewBox="0 0 1133.86 1133.86"><defs><style>.b{fill:#fff;}</style></defs><path class="b" d="M805.87,1064.21c-5.72.57-11.43,1.26-17.16,1.68-8.75.65-17.51,1.31-26.28,1.63-19.89.71-39.79,1.34-59.69,1.74-11.48.23-22.96-.1-34.44-.1-70.09,0-140.18.12-210.27,0-22.43-.04-44.86-.55-67.29-1.07-13.4-.31-26.82-.6-40.16-1.71-14.56-1.21-29.05-3.27-43.55-5.12-26.32-3.36-51.52-10.81-76.06-20.8-19.77-8.05-37.96-18.69-55.12-31.35-12.02-8.87-22.39-19.41-32.8-29.97-33.4-33.87-52.89-75.22-64.09-120.77-4.01-16.32-6.59-33.04-8.99-49.7-1.5-10.4-1.44-21.03-2.07-31.55-.7-11.73-1.57-23.45-2.03-35.19-.65-16.6-1.4-33.21-1.4-49.81-.01-78.58.17-157.16.4-235.74.04-14.78.64-29.57.98-44.35.35-15.25.41-30.52,1.11-45.75,1.6-34.48,5.1-68.71,14.78-102.05,9.05-31.19,22-60.6,41.6-86.56,9.08-12.03,19.81-22.92,30.46-33.66,33.84-34.15,75.67-53.86,121.69-65.21,16.47-4.07,33.36-6.66,50.18-9.05,10.57-1.5,21.36-1.37,32.05-2.01,10.9-.65,21.79-1.71,32.7-1.93,26.92-.56,53.84-.95,80.77-1.03,70.76-.2,141.51-.24,212.27-.21,12.62,0,25.24.77,37.86,1.06,7.81.17,15.63-.08,23.43.16,13.06.4,26.14.7,39.17,1.65,41.26,3.01,81.73,9.91,120.12,26.13,21.12,8.92,41.18,19.79,58.6,34.83,12.13,10.46,24.47,20.92,35.09,32.83,16.31,18.28,29.56,38.87,39.56,61.38,9.81,22.09,17.18,45.02,21.77,68.73,2.45,12.68,3.84,25.59,5.21,38.45,1.4,13.12,2.42,26.29,3.17,39.46.64,11.24.6,22.52.95,33.78.21,6.64.85,13.27.86,19.9.08,81.91.07,163.81.08,245.72,0,14.48.22,28.96-.12,43.43-.3,12.92-1.34,25.82-1.84,38.73-.4,10.42-.15,20.88-.8,31.29-.62,10.01-1.78,20-3.15,29.94-1.76,12.79-3.35,25.66-6.11,38.26-5.42,24.77-13.03,48.98-25.49,71.15-8.79,15.64-18.99,30.54-29.26,45.28-4.48,6.43-10.65,11.71-16.16,17.41-29.63,30.7-65.26,51.88-105.71,64.6-18.34,5.77-37.43,9.22-56.26,13.37-6.06,1.34-12.37,1.57-18.56,2.31,0-.06-.01-.12-.02-.17ZM975.71,340.81c.07,0,.15,0,.22,0,0-1,.15-2.02-.02-2.98-2.31-13.37-4.19-26.83-7.1-40.07-8.89-40.45-29.52-73.89-61.76-99.87-14.27-11.5-30.47-19.78-47.81-25.86-19.06-6.68-38.59-11.04-58.7-12.83-11.65-1.04-23.27-2.44-34.94-3.09-11.07-.62-22.19-.43-33.29-.65-15.28-.3-30.55-.8-45.83-.93-35.62-.32-71.24-.73-106.86-.63-56.73.17-113.46.6-170.18,1.19-16.71.17-33.42,1.25-50.12,1.96-7.25.31-14.55.31-21.73,1.21-10.05,1.27-20.02,3.14-29.99,4.94-22.14,4.01-43.07,11.45-62.61,22.63-17.38,9.94-31.41,23.72-44.47,38.71-8.7,9.99-15.5,21.06-21.09,32.95-7.7,16.38-13.41,33.43-16.32,51.31-2.21,13.57-4.35,27.17-5.75,40.83-.99,9.68-.59,19.5-.99,29.25-.64,15.73-1.95,31.46-2.06,47.19-.32,44.94-.41,89.89-.16,134.83.36,63.68-1.07,127.38,2.1,191.02.81,16.31,1.46,32.67,3.38,48.86,1.7,14.38,4.38,28.72,7.84,42.79,9.17,37.36,29.65,67.78,59.25,92.01,14.22,11.64,30.31,20.49,47.83,25.9,15.88,4.91,32.17,8.63,48.45,12.07,9.1,1.92,18.53,2.5,27.85,3.15,9.56.66,19.17.6,28.76.99,16.24.65,32.46,1.63,48.7,2.03,13.64.33,27.29,0,40.93,0,60.93.02,121.86.29,182.79,0,33.38-.16,66.75-1.14,100.12-1.97,14.53-.36,29.11-.63,43.54-2.18,13.45-1.44,26.81-4.1,40.06-6.95,39.91-8.61,73.12-28.69,98.97-60.28,14.8-18.08,25.19-38.78,31.12-61.42,3.63-13.88,6.31-28.02,8.93-42.14,1.31-7.09,1.79-14.37,2.19-21.59.54-9.57.53-19.18.95-28.76.62-14.24,1.97-28.47,2.04-42.7.27-52.44.31-104.87.11-157.31-.22-57.35.88-114.73-1.98-172.05-.31-6.29-.02-12.62-.38-18.91-.44-7.56-1.28-15.1-1.95-22.66Z"/><path class="b" d="M823.62,539.9c6.22,75.43-13.96,140.8-62.13,196.32-44.57,51.36-101.65,80.73-169.58,87.11-73.51,6.91-138.89-14.05-194.46-62.45-54.8-47.73-84.18-109.06-87.84-181.48-3.47-68.68,17.88-130.01,63.14-181.86,47.87-54.84,109.21-84.17,181.76-88.18,52.79-2.92,102.27,10.02,147.52,37.74,37.63,23.06,67.27,53.98,89.18,92.3,18.21,31.85,28.7,66.14,32.41,100.49ZM399,584.62c.54,30.9,18.05,72.14,54.02,105.69,36.12,33.69,79.12,47.81,127.54,44.46,45.87-3.17,84.27-23.44,114.31-58.12,30.57-35.28,43.58-77.14,40.19-123.45-5.77-78.93-73.7-161.27-181.87-154.15-80.72,5.31-154.51,74.35-154.19,185.57Z"/><path class="b" d="M776.02,297.93c.66-33.19,26.31-59.49,59.42-59.51,33.97-.02,59.83,25.25,60.11,59.28.28,34.25-25.21,58.49-56.61,60.21-35.65,1.96-62.94-26.97-62.92-59.98Z"/></svg>